<svg width="120" height="134" viewBox="0 0 120 134" fill="none" xmlns="http://www.w3.org/2000/svg">
<circle cx="59.6792" cy="74.3043" r="59.3521" fill="#D59860"/>
<path fill-rule="evenodd" clip-rule="evenodd" d="M2.17139 89.0423C7.45881 109.735 23.6211 126.077 44.2108 131.62L59.7538 73.6132L2.17139 89.0423Z" fill="#FDAB68"/>
<path fill-rule="evenodd" clip-rule="evenodd" d="M59.6792 72.6203L90.0861 125.287C107.423 114.924 119.032 95.97 119.032 74.3043C119.032 41.525 92.4587 14.9522 59.6794 14.9522L59.6792 14.9522V72.6203Z" fill="#E38539"/>
<path fill-rule="evenodd" clip-rule="evenodd" d="M59.6792 73.3201L117.261 88.7492C118.418 84.1253 119.032 79.2865 119.032 74.3043C119.032 41.525 92.4587 14.9522 59.6794 14.9522L59.6792 14.9522V73.3201Z" fill="#FDAB68"/>
<path fill-rule="evenodd" clip-rule="evenodd" d="M59.6792 73.4472L110.713 43.9831C100.362 26.5991 81.3807 14.9522 59.6794 14.9522L59.6792 14.9522V73.4472Z" fill="#E38539"/>
<path fill-rule="evenodd" clip-rule="evenodd" d="M59.6793 74.3043L59.6793 15.3761C39.4489 15.6483 19.8719 26.2629 9.02129 45.0567L9.02124 45.0568L59.6793 74.3043Z" fill="#EF9D5B"/>
</svg>
